<svg xmlns="http://www.w3.org/2000/svg" viewBox="0 0 850 176">
    <g fill="#000000" fill-rule="evenodd">
        <path d="M226.445 147.943V129.31h-20.479v18.633h-5.036v-39.95h5.036v16.897h20.48v-16.898h5.035v39.951zM253.412 133.451c-7.498.28-9.904 2.406-9.904 6.211 0 3.357 2.238 4.868 5.484 4.868 5.035 0 8.84-2.742 8.84-8.56v-2.687l-4.42.168zm9.288-5.93v20.422h-3.58l-.952-4.253h-.224c-2.63 3.302-5.036 4.813-10.07 4.813-5.429 0-9.458-2.798-9.458-8.897 0-5.987 4.59-9.289 14.381-9.568l5.092-.168v-1.79c0-4.98-2.294-6.659-6.21-6.659-3.135 0-5.989 1.12-8.45 2.294l-1.51-3.693c2.63-1.399 6.321-2.574 10.238-2.574 7.274 0 10.743 3.078 10.743 10.072zM288.38 117.728l-.615 4.532c-.951-.223-2.239-.39-3.245-.39-4.645 0-8.729 4.027-8.729 10.07v16.003h-4.924v-29.99h4.029l.559 5.482h.224c1.902-3.302 4.979-6.043 9.177-6.043 1.119 0 2.517.111 3.524.336M292.854 147.943h4.924v-29.991h-4.924v29.991zm5.373-38.104c0 2.126-1.344 3.133-2.855 3.133-1.622 0-2.909-1.007-2.909-3.133 0-2.183 1.287-3.134 2.909-3.134 1.511 0 2.855.951 2.855 3.134zM343.546 147.943l-14.157-19.08-4.084 3.581v15.5h-5.036v-39.952h5.036v19.696c2.238-2.518 4.588-5.036 6.882-7.61l10.799-12.086h5.875l-15.835 17.401 16.451 22.55h-5.931zM356.637 129.982h15.275c-.056-5.092-2.294-8.562-7.274-8.562-4.7 0-7.498 3.19-8.001 8.562m20.423.951v2.965h-20.535c.168 6.771 3.58 10.408 9.568 10.408 2.909 0 5.875-.559 8.226-1.455l1.398 3.693c-3.077 1.343-5.764 1.96-9.848 1.96-8.561 0-14.436-5.317-14.436-15.333 0-9.848 5.315-15.779 13.26-15.779 7.667 0 12.367 5.371 12.367 13.541M395.41 143.747l1.343 3.524c-1.064.672-3.19 1.232-5.484 1.232-4.7 0-8.785-2.015-8.785-9.288v-26.299l4.924-1.847v6.883h8.674v3.805h-8.674v17.345c0 3.637 1.96 5.373 4.7 5.373 1.12 0 2.63-.392 3.302-.728M426.24 147.943h-4.03l-.728-3.973h-.223c-1.958 3.134-5.652 4.533-9.512 4.533-7.219 0-10.91-3.302-10.91-10.912v-19.639h4.978v19.303c0 4.813 2.126 7.163 6.658 7.163 6.66 0 8.841-3.86 8.841-10.855v-15.61h4.925v29.99zM437.147 106.705c1.51 0 2.854.951 2.854 3.134 0 2.126-1.343 3.133-2.854 3.133-1.622 0-2.91-1.007-2.91-3.133 0-2.183 1.288-3.134 2.91-3.134zm-6.435 50.583c3.19-1.455 3.917-3.581 3.917-8.897v-30.439h4.924v30.719c0 5.875-1.566 10.519-7.273 12.701l-1.568-4.084zM473.012 147.943h-4.028l-.728-3.973h-.223c-1.96 3.134-5.652 4.533-9.513 4.533-7.218 0-10.911-3.302-10.911-10.912v-19.639h4.98v19.303c0 4.813 2.126 7.163 6.658 7.163 6.659 0 8.84-3.86 8.84-10.855v-15.61h4.925v29.99zM486.326 117.896c0 1.454-.112 3.021-.28 4.196h.336c1.902-3.077 5.483-4.644 9.344-4.644 7.274 0 10.967 3.302 10.967 10.967v19.528h-4.868V128.75c0-4.81-2.126-7.217-6.715-7.217-6.714 0-8.784 3.917-8.784 10.911v15.5h-4.924v-40.68l4.924-1.847v12.48zM548.878 133.955v-.896c0-7.441-2.015-11.582-8.673-11.582-5.315 0-7.945 4.533-7.945 11.638 0 7.162 2.63 11.303 8.001 11.303 6.323 0 8.617-3.469 8.617-10.463m-21.71-.951c0-10.296 4.924-15.611 12.365-15.611 4.645 0 7.443 1.958 9.288 4.419h.336c-.11-.951-.336-3.3-.336-4.419V107.32l4.925-1.902v42.525h-3.972l-.728-4.028h-.225c-1.79 2.573-4.643 4.588-9.343 4.588-7.443 0-12.31-5.204-12.31-15.499M562.695 147.943h4.924v-29.991h-4.924v29.991zm5.373-38.104c0 2.126-1.344 3.133-2.855 3.133-1.622 0-2.909-1.007-2.909-3.133 0-2.183 1.287-3.134 2.909-3.134 1.511 0 2.855.951 2.855 3.134zM586.92 147.943l1.679-4.477h3.021v-31.054h-4.7v-4.42h14.437l-1.679 4.42h-3.022v31.054h4.701v4.477zM632.576 128.415v19.528h-4.868v-19.192c0-4.812-2.126-7.218-6.714-7.218-6.659 0-8.785 3.861-8.785 10.855v15.555h-4.924v-29.991h3.973l.727 4.085h.28c1.958-3.134 5.651-4.644 9.457-4.644 7.162 0 10.854 3.3 10.854 11.022M661.334 133.955v-.896c0-7.441-2.015-11.582-8.673-11.582-5.315 0-7.945 4.533-7.945 11.638 0 7.162 2.63 11.303 8.001 11.303 6.323 0 8.617-3.469 8.617-10.463m-21.71-.951c0-10.296 4.924-15.611 12.365-15.611 4.645 0 7.443 1.958 9.288 4.419h.336c-.11-.951-.336-3.3-.336-4.419V107.32l4.925-1.902v42.525h-3.972l-.728-4.028h-.225c-1.79 2.573-4.643 4.588-9.343 4.588-7.443 0-12.31-5.204-12.31-15.499M687.35 144.418c6.043 0 8.784-4.42 8.784-11.526 0-7.107-2.741-11.36-8.841-11.36-6.098 0-8.728 4.253-8.728 11.36 0 7.106 2.685 11.526 8.785 11.526m-.112 4.085c-7.946 0-13.765-5.651-13.765-15.611 0-9.904 5.315-15.5 13.933-15.5 8.113 0 13.82 5.596 13.82 15.5 0 9.96-5.427 15.61-13.988 15.61M733.173 128.415v19.528h-4.868v-19.192c0-4.812-2.126-7.218-6.714-7.218-6.659 0-8.785 3.861-8.785 10.855v15.555h-4.924v-29.991h3.973l.727 4.085h.279c1.959-3.134 5.652-4.644 9.458-4.644 7.162 0 10.854 3.3 10.854 11.022M744.864 129.982h15.275c-.055-5.092-2.294-8.562-7.273-8.562-4.7 0-7.498 3.19-8.002 8.562m20.424.951v2.965h-20.535c.168 6.771 3.581 10.408 9.567 10.408 2.91 0 5.876-.559 8.226-1.455l1.398 3.693c-3.077 1.343-5.763 1.96-9.848 1.96-8.56 0-14.435-5.317-14.435-15.333 0-9.848 5.315-15.779 13.261-15.779 7.666 0 12.366 5.371 12.366 13.541M779.33 148.503c-4.197 0-7.106-.672-9.4-1.902l1.454-3.805c1.96.839 5.204 1.734 8.057 1.734 4.981 0 7.107-1.734 7.107-4.421 0-2.237-1.51-3.581-7.386-5.818-5.819-2.238-9.289-4.03-9.289-8.953 0-5.092 4.532-7.945 11.247-7.945 3.637 0 6.771.783 9.568 2.014l-1.51 3.973c-2.575-1.12-5.484-1.96-8.394-1.96-4.028 0-6.21 1.4-6.21 3.639 0 2.517 1.958 3.524 7.721 5.707 5.708 2.126 9.01 4.085 9.01 8.896 0 5.82-4.646 8.84-11.975 8.84M797.289 147.943h4.924v-29.991h-4.924v29.991zm5.371-38.104c0 2.126-1.342 3.133-2.853 3.133-1.623 0-2.91-1.007-2.91-3.133 0-2.183 1.287-3.134 2.91-3.134 1.511 0 2.853.951 2.853 3.134zM823.417 133.451c-7.497.28-9.903 2.406-9.903 6.211 0 3.357 2.238 4.868 5.483 4.868 5.036 0 8.841-2.742 8.841-8.56v-2.687l-4.42.168zm9.29-5.93v20.422h-3.582l-.95-4.253h-.225c-2.63 3.302-5.036 4.813-10.072 4.813-5.428 0-9.456-2.798-9.456-8.897 0-5.987 4.588-9.289 14.38-9.568l5.092-.168v-1.79c0-4.98-2.294-6.659-6.21-6.659-3.134 0-5.988 1.12-8.45 2.294l-1.51-3.693c2.63-1.399 6.322-2.574 10.24-2.574 7.272 0 10.742 3.078 10.742 10.072z"/>
        <g>
            <path d="M232.097 66.849v19.584c-4.308 1.398-8.448 2.07-14.044 2.07-12.422 0-19.137-7.89-19.137-20.535 0-12.477 7.61-20.535 20.703-20.535 4.477 0 8.505.895 11.918 2.35l-1.677 4.42c-2.855-1.231-6.715-2.35-10.52-2.35-9.568 0-15.164 6.155-15.164 16.115 0 9.569 4.309 16.17 15.052 16.17 3.525 0 5.819-.447 7.834-.95V71.326h-8.785l1.678-4.477h12.142zM243.397 69.982h15.275c-.055-5.092-2.294-8.562-7.273-8.562-4.7 0-7.498 3.19-8.002 8.562m20.424.951v2.965h-20.535c.168 6.771 3.58 10.408 9.567 10.408 2.91 0 5.876-.559 8.226-1.455l1.398 3.693c-3.077 1.343-5.763 1.96-9.848 1.96-8.56 0-14.435-5.317-14.435-15.333 0-9.848 5.315-15.779 13.26-15.779 7.667 0 12.367 5.371 12.367 13.541M287.821 57.728l-.615 4.532c-.95-.223-2.239-.39-3.245-.39-4.645 0-8.729 4.027-8.729 10.07v16.003h-4.924v-29.99h4.03l.558 5.482h.224c1.902-3.302 4.98-6.043 9.177-6.043 1.12 0 2.517.111 3.524.336M294.703 69.982h15.275c-.056-5.092-2.294-8.562-7.274-8.562-4.7 0-7.498 3.19-8 8.562m20.422.951v2.965h-20.535c.168 6.771 3.581 10.408 9.568 10.408 2.91 0 5.875-.559 8.226-1.455l1.398 3.693c-3.077 1.343-5.764 1.96-9.848 1.96-8.56 0-14.436-5.317-14.436-15.333 0-9.848 5.315-15.779 13.261-15.779 7.666 0 12.366 5.371 12.366 13.541M324.132 46.705c1.511 0 2.854.951 2.854 3.134 0 2.126-1.343 3.133-2.854 3.133-1.622 0-2.909-1.007-2.909-3.133 0-2.183 1.287-3.134 2.909-3.134zm-6.435 50.583c3.19-1.455 3.917-3.581 3.917-8.897V57.952h4.924v30.719c0 5.875-1.566 10.519-7.273 12.701l-1.568-4.084zM347.743 73.451c-7.498.28-9.904 2.406-9.904 6.211 0 3.357 2.238 4.868 5.484 4.868 5.035 0 8.84-2.742 8.84-8.56v-2.687l-4.42.168zm9.288-5.93v20.422h-3.58l-.952-4.253h-.224c-2.63 3.302-5.036 4.813-10.07 4.813-5.429 0-9.458-2.798-9.458-8.897 0-5.987 4.59-9.289 14.381-9.568l5.092-.168v-1.79c0-4.98-2.294-6.659-6.21-6.659-3.135 0-5.989 1.12-8.45 2.294l-1.51-3.693c2.63-1.399 6.321-2.574 10.238-2.574 7.274 0 10.743 3.078 10.743 10.072zM383.773 52.916h-.224c.224 2.294.392 6.547.392 10.799v24.228h-4.644V47.992h7.442l12.309 32.734h.225l12.533-32.734h7.386v39.95h-4.98V63.38c0-3.861.224-8.002.392-10.408h-.224l-13.317 34.97h-4.141l-13.15-35.026zM441.066 73.451c-7.497.28-9.903 2.406-9.903 6.211 0 3.357 2.238 4.868 5.483 4.868 5.036 0 8.84-2.742 8.84-8.56v-2.687l-4.42.168zm9.289-5.93v20.422h-3.581l-.951-4.253h-.224c-2.63 3.302-5.036 4.813-10.072 4.813-5.428 0-9.456-2.798-9.456-8.897 0-5.987 4.588-9.289 14.38-9.568l5.092-.168v-1.79c0-4.98-2.294-6.659-6.211-6.659-3.133 0-5.987 1.12-8.45 2.294l-1.51-3.693c2.63-1.399 6.323-2.574 10.24-2.574 7.273 0 10.743 3.078 10.743 10.072zM466.074 88.503c-4.196 0-7.106-.672-9.4-1.902l1.455-3.805c1.958.839 5.204 1.734 8.057 1.734 4.98 0 7.106-1.734 7.106-4.421 0-2.237-1.51-3.581-7.386-5.818-5.819-2.238-9.288-4.03-9.288-8.953 0-5.092 4.532-7.945 11.247-7.945 3.637 0 6.771.783 9.567 2.014l-1.51 3.973c-2.574-1.12-5.484-1.96-8.393-1.96-4.029 0-6.21 1.4-6.21 3.639 0 2.517 1.957 3.524 7.721 5.707 5.707 2.126 9.01 4.085 9.01 8.896 0 5.82-4.646 8.84-11.976 8.84M487.559 69.982h15.275c-.056-5.092-2.294-8.562-7.274-8.562-4.7 0-7.498 3.19-8.001 8.562m20.423.951v2.965h-20.535c.168 6.771 3.58 10.408 9.568 10.408 2.909 0 5.875-.559 8.226-1.455l1.398 3.693c-3.077 1.343-5.764 1.96-9.848 1.96-8.561 0-14.436-5.317-14.436-15.333 0-9.848 5.315-15.779 13.26-15.779 7.667 0 12.367 5.371 12.367 13.541M519.394 57.896c0 1.454-.111 3.021-.28 4.196h.336c1.903-3.077 5.484-4.644 9.344-4.644 7.275 0 10.967 3.302 10.967 10.967v19.528h-4.868V68.75c0-4.81-2.126-7.217-6.714-7.217-6.715 0-8.785 3.917-8.785 10.911v15.5h-4.924v-40.68l4.924-1.847v12.48zM547.928 87.943h4.924V57.952h-4.924v29.991zm5.371-38.104c0 2.126-1.343 3.133-2.854 3.133-1.623 0-2.91-1.007-2.91-3.133 0-2.183 1.287-3.134 2.91-3.134 1.511 0 2.854.951 2.854 3.134zM589.61 59.016c-.337-.896-1.512-4.59-1.903-5.987-.56 2.294-1.286 4.7-1.734 5.987l-4.532 12.086h12.646l-4.477-12.086zm5.986 16.562h-15.834l-4.756 12.366h-5.091l15.61-40.12h4.532l15.555 40.12h-5.203l-4.813-12.366zM629.894 73.955v-.896c0-7.441-2.015-11.582-8.673-11.582-5.315 0-7.945 4.533-7.945 11.638 0 7.162 2.63 11.303 8 11.303 6.324 0 8.618-3.469 8.618-10.463m-21.71-.951c0-10.296 4.924-15.611 12.365-15.611 4.645 0 7.443 1.958 9.288 4.419h.336c-.111-.951-.336-3.3-.336-4.419V47.32l4.925-1.902v42.525h-3.972l-.728-4.028h-.225c-1.79 2.573-4.643 4.588-9.343 4.588-7.443 0-12.31-5.204-12.31-15.499M638.955 57.952h5.26l6.38 17.682c.893 2.462 2.07 6.098 2.404 7.945h.224c.392-1.847 1.678-5.54 2.518-7.945l6.38-17.682h5.26l-11.416 29.991h-5.652l-11.358-29.99zM674.54 69.982h15.274c-.055-5.092-2.294-8.562-7.273-8.562-4.7 0-7.498 3.19-8.002 8.562m20.424.951v2.965h-20.535c.168 6.771 3.581 10.408 9.567 10.408 2.91 0 5.876-.559 8.226-1.455l1.398 3.693c-3.077 1.343-5.763 1.96-9.848 1.96-8.56 0-14.435-5.317-14.435-15.333 0-9.848 5.315-15.779 13.261-15.779 7.666 0 12.366 5.371 12.366 13.541M726.742 68.415v19.528h-4.868V68.751c0-4.812-2.126-7.218-6.715-7.218-6.658 0-8.784 3.861-8.784 10.855v15.555h-4.924V57.952h3.973l.726 4.085h.28c1.958-3.134 5.652-4.644 9.457-4.644 7.162 0 10.855 3.3 10.855 11.022M746.77 83.747l1.344 3.524c-1.064.672-3.19 1.232-5.484 1.232-4.7 0-8.785-2.015-8.785-9.288V52.916l4.924-1.847v6.883h8.674v3.805h-8.674v17.345c0 3.637 1.959 5.373 4.7 5.373 1.119 0 2.63-.392 3.302-.728"/>
        </g>
        <path d="M160.313 128.672h1.12l1.286 3.47 1.287-3.47h1.12v4.42h-.784v-3.413h-.056l-1.23 3.414h-.673l-1.23-3.414h-.057V133.093h-.783v-4.421zm-2.574.672h-1.287v-.672h3.413v.672h-1.343v3.749h-.783v-3.75zm-63.75 9.954c0 .54.62.543.732 0 .823-3.998 2.076-6.662 4.033-9.25l-4.4.003a.364.364 0 0 0-.365.364v8.883zm32.32-55.485c-.18-.585-.687-.623-.682-.011.05 5.779-1.612 10.745-12.16 21.294l-8.344 8.336c-3.797 3.797-7.21 7.265-9.229 10.73h8.24l.974-.975 11.97-11.982c9.97-9.97 11.36-20.514 9.231-27.392zm-11.187 35.249l-9.999 10.007c-6.052 6.053-11.134 11.268-11.134 16.97l.006 1.589c0 .43.536.499.701.048 1.868-5.106 8.112-10.556 19.564-8.624 0 0 49.89 8.62 50.31 8.658.487.043.728-.437.414-.811-.189-.224-23.22-23.254-23.22-23.254l-26.642-4.583zM79.03 130.049a.364.364 0 0 1-.364-.364v-5.162c0-.201.163-.364.364-.364l8.732.002a.364.364 0 0 0 .364-.364c-.023-4.637-3.519-7.788-17.523-5.35l-30.24 5.198s-23.032 23.03-23.22 23.254c-.315.374-.074.854.413.81.42-.036 50.31-8.657 50.31-8.657 11.452-1.932 17.696 3.518 19.564 8.624.165.45.702.383.702-.048l.001-17.215a.364.364 0 0 0-.364-.364H79.03zM65.09 57.897c-9.969 9.969-11.359 20.514-9.23 27.392.18.585.686.623.681.01-.05-5.778 1.612-10.745 12.161-21.293l22.74-22.733c6.052-6.053 11.134-11.268 11.134-16.971v-8.895c0-.541-.62-.543-.732 0-1.496 7.259-4.4 10.123-10.387 16.11L65.09 57.898zm37.508-17.973v-8.956c0-.541-.62-.543-.732 0-1.496 7.26-4.392 10.169-10.38 16.157L67.603 70.988c-11.59 11.59-13.596 22.808-7.7 30.016.392.48.815.192.558-.388-3.897-8.818 5.45-18.167 9.898-22.617l21.104-21.105c6.053-6.052 11.135-11.267 11.135-16.97zm-34.34 46.044c-11.59 11.592-6.26 22.787.5 25.868.593.27.828-.211.375-.604-5.422-4.696-3.776-12.597 3.042-19.414L91.44 72.553c6.053-6.052 11.134-11.267 11.134-16.97v-8.895c0-.541-.62-.543-.732 0-1.495 7.259-4.393 10.11-10.38 16.099l-23.203 23.18zm25.71 28.813v8.955c0 .54.62.543.731 0 1.496-7.26 4.392-10.168 10.38-16.156l9.486-9.466c11.591-11.59 13.596-22.808 7.701-30.016-.393-.48-.816-.193-.559.387 3.897 8.818-5.449 18.168-9.898 22.618l-6.707 6.707c-6.053 6.053-11.135 11.268-11.135 16.97zm11.137-22.863c-5.988 5.988-8.886 8.84-10.38 16.099-.113.543-.733.54-.733 0v-8.895c0-5.703 5.081-10.918 11.134-16.971l4.867-4.867c6.818-6.818 8.464-14.718 3.042-19.415-.453-.392-.218-.874.376-.603 6.76 3.08 12.09 14.276.5 25.867l-8.806 8.785z"/>
    </g>
</svg>
