<svg xmlns="http://www.w3.org/2000/svg" width="136" height="40" fill="none"><g fill="#003da7" clip-path="url(#a)"><path d="M67.052 28.665s-6.595-7.158-14.888-7.158H6.442l-.706 1.521h46.428c8.293 0 14.888 7.158 14.888 7.158s6.595-7.157 14.887-7.157h47.887l-.705-1.522H81.935c-8.293 0-14.888 7.158-14.888 7.158z"/><path d="M67.052 33.739s7.1-5.99 15.393-5.99h49.566l-1.407-3.042H81.94c-8.293 0-14.888 7.005-14.888 7.005s-6.595-7.005-14.887-7.005h-47.2L3.557 27.75h48.101c8.293 0 15.393 5.989 15.393 5.989Z"/><path d="M7.405 19.428H52.17c8.292 0 14.887 7.716 14.887 7.716s6.596-7.716 14.888-7.716h46.223l-.353-.763h-45.87c-8.293 0-14.888 7.716-14.888 7.716s-6.595-7.716-14.887-7.716H7.759zm125.126 9.437H82.956c-8.293 0-15.904 5.432-15.904 5.432s-7.606-5.432-15.903-5.432H3.042L0 35.437h51.153c8.293 0 15.904 4.563 15.904 4.563s7.606-4.563 15.903-4.563h52.217l-.2-1.283zM55.56.577H45.078v3.314h4.87l-4.297 7.735L40.066 0 35.28 10.162 32.804.272l-4.635 8.283L23.572.272l-2.418 9.614L16.4 0 8.94 15.827h4.864c-.438-1.12-.157-2.212.663-2.212h4.006c.82 0 1.102 1.096.663 2.212H24l-.515-1.073c.276-1.478.934-4.778 1.325-4.778.506 0 3.281 5.851 3.281 5.851s3.11-5.713 3.52-5.713c.329 0 1.04 3.691 1.292 5.07l-.305.648h4.864c-.439-1.12-.158-2.213.663-2.213h4.005c.82 0 1.102 1.097.663 2.213h16.2V.577h-3.449.015Zm-40.248 9.57 1.154-2.446 1.173 2.447h-2.327Zm23.667 0 1.154-2.446 1.173 2.447H38.98Zm10.43 2.027 6.156-10.996v10.997h-6.157Zm33.203.373c0 .844.44 1.52.44 1.52s-2.91 2.266-6.19 2.266c-1.746 0-3.959-.658-5.647-2.15v2.15l-7.506-7.34v6.83h-3.753V0l7.616 7.54V.576h3.648v1.97C73.075.9 75.44.204 76.561.204c1.993 0 3.076.61 3.381.61s.539-.238.539-.238v4.669S78.588 3.69 76.96 3.69c-1.626 0-4.64 1.335-4.64 4.64s3.558 4.487 4.607 4.487 1.96-.539 1.96-.539V10.08h-4.025V6.36h7.745v6.19l.004-.005Zm40.243-7.983c0-.54.405-1.083 1.283-1.083s2.027.844 2.027.844V.577s-.496.134-.697.134-1.812-.382-2.37-.382c-.343 0-1.693.143-2.68 1.083V.706h-9.399v-.5s-.372.371-.643.371c-.272 0-1.488-.577-2.738-.577-1.044 0-5.46.615-6.89 4.835L98.425 0l-4.687 9.943V6.085s-.677.238-1.116.238h-2.537V3.82h4.025c.61 0 1.216.438 1.216.438V.577H86.16s.372.339.372.744v13.595c0 .61-.272.911-.272.911h4.159s-.339-.438-.339-.91V9.875h2.399c.477 0 .858.267 1.068.453l-2.59 5.498h4.865c-.44-1.12-.158-2.212.662-2.212h4.006c.82 0 1.102 1.096.663 2.212h4.74c.901.32 1.674.44 2.098.44 1.541 0 2.027-.44 2.299-.44s.71.272.71.272v-4.597s-.438 1.283-3.481 1.283-4.225-3.348-4.225-4.869 1.793-4.363 4.158-4.363 3.553 1.354 3.553 1.354V3.791h2.67v10.992c0 .71-.238 1.05-.238 1.05h4.125s-.305-.406-.305-.878V3.786h2.069a6 6 0 0 0-.024.501c0 4.168 5.046 4.745 5.046 6.9 0 .84-.444 1.956-1.712 1.956s-3.1-1.546-3.1-1.546v4.674s.41-.32.82-.32c.434 0 2.208.391 3.086.391s4.53-.982 4.53-4.969c0-4.44-5.141-5.655-5.141-6.795zm-25.517 5.584L98.492 7.7l1.173 2.447z"/></g><defs><clipPath id="a"><path fill="#003da7" d="M0 0h135.172v40H0z"/></clipPath></defs></svg>